<?xml version="1.0" encoding="UTF-8" standalone="no"?>
<!DOCTYPE svg PUBLIC "-//W3C//DTD SVG 1.1//EN" "http://www.w3.org/Graphics/SVG/1.1/DTD/svg11.dtd">
<svg width="100%" height="100%" viewBox="0 0 800 800" version="1.1" xmlns="http://www.w3.org/2000/svg" xmlns:xlink="http://www.w3.org/1999/xlink" xml:space="preserve" xmlns:serif="http://www.serif.com/" style="fill-rule:evenodd;clip-rule:evenodd;stroke-linecap:round;stroke-linejoin:round;stroke-miterlimit:1.5;">
    <path d="M12.224,402.152C12.224,613.919 186.481,788.176 398.248,788.176C610.015,788.176 784.272,613.919 784.272,402.152C784.272,190.385 610.015,16.128 398.248,16.128C186.481,16.128 12.224,190.385 12.224,402.152Z" style="fill:rgb(24,20,39);fill-rule:nonzero;"/>
    <circle cx="398.015" cy="421.05" r="283.282" style="fill:none;stroke:rgb(44,43,67);stroke-width:1.38px;"/>
    <path d="M667.58,447.451C668.263,314.761 568.767,204.808 438.921,186.136L439.216,128.673C439.322,108.056 422.444,91.002 401.826,90.896C381.208,90.791 364.155,107.669 364.049,128.287L363.754,185.75C233.723,203.086 133.102,312.01 132.42,444.7C131.673,589.962 250.866,708.341 398.648,709.1C546.426,709.86 666.834,592.717 667.58,447.451Z" style="fill:rgb(162,162,162);fill-rule:nonzero;"/>
    <path d="M198.996,463.512L198.996,463.512C198.996,572.818 288.942,662.764 398.248,662.764C507.554,662.764 597.5,572.818 597.5,463.512L597.5,463.512C597.5,354.206 507.554,264.26 398.248,264.26C288.942,264.26 198.996,354.206 198.996,463.512Z" style="fill:rgb(86,41,10);fill-rule:nonzero;"/>
    <ellipse cx="548.744" cy="498.071" rx="21.172" ry="15.879" style="fill:rgb(213,171,150);"/>
    <path d="M435.167,620.619C435.167,620.619 506.712,618.451 540.316,547.991" style="fill:none;stroke:rgb(213,171,150);stroke-width:15.3px;"/>
</svg>
